<?xml version="1.0" encoding="UTF-8" standalone="no"?>
<!-- Created with Inkscape (http://www.inkscape.org/) -->

<svg
   width="210mm"
   height="210mm"
   viewBox="0 0 210 210"
   version="1.1"
   id="svg5"
   inkscape:version="1.1.1 (3bf5ae0d25, 2021-09-20)"
   sodipodi:docname="icon.svg"
   xmlns:inkscape="http://www.inkscape.org/namespaces/inkscape"
   xmlns:sodipodi="http://sodipodi.sourceforge.net/DTD/sodipodi-0.dtd"
   xmlns="http://www.w3.org/2000/svg"
   xmlns:svg="http://www.w3.org/2000/svg">
  <sodipodi:namedview
     id="namedview7"
     pagecolor="#505050"
     bordercolor="#ffffff"
     borderopacity="1"
     inkscape:pageshadow="0"
     inkscape:pageopacity="0"
     inkscape:pagecheckerboard="1"
     inkscape:document-units="mm"
     showgrid="false"
     inkscape:zoom="0.38717816"
     inkscape:cx="515.26667"
     inkscape:cy="749.00919"
     inkscape:window-width="1440"
     inkscape:window-height="890"
     inkscape:window-x="-6"
     inkscape:window-y="-6"
     inkscape:window-maximized="1"
     inkscape:current-layer="g605" />
  <defs
     id="defs2" />
  <g
     inkscape:label="Laag 1"
     inkscape:groupmode="layer"
     id="layer1">
    <g
       id="g605"
       transform="translate(-0.7778537,1.6278065)">
      <path
         style="fill:#000000;fill-opacity:1;stroke-width:1.16006"
         d="M 94.15299,200.84446 C 54.844056,194.93609 20.760045,163.1692 12.438657,124.68536 11.509581,120.38867 10.497244,113.62159 10.189014,109.64739 l -0.5603825,-7.22582 3.3999605,2.5137 c 1.869989,1.38254 3.4182,3.06807 3.44043,3.74563 2.690768,13.78622 5.868215,29.56971 12.720269,41.40341 8.184854,14.34333 18.812051,24.65609 34.464806,33.44515 7.906964,4.12125 12.435978,5.56318 18.898206,7.60176 8.627513,2.7379 11.746428,3.12737 24.941447,3.11453 12.06404,-0.0131 16.62107,-0.50137 22.78055,-2.44778 7.14279,-2.25714 7.74114,-2.70533 8.27294,-6.1971 0.7184,-4.71652 0.3569,-5.09402 -3.10304,-3.24221 -9.30168,2.52539 -14.63665,3.75173 -23.25377,4.30304 -12.369947,0.76698 -25.366528,-1.19263 -33.303263,-5.02143 -3.399216,-1.63145 -7.442997,-2.59151 -9.785811,-5.14507 -3.468622,-3.83229 -3.145616,-27.28108 0.549554,-39.90078 1.494588,-5.10429 3.036529,-9.80256 3.426575,-10.4406 1.790454,-2.92907 0.40162,-3.83329 -9.587763,-6.24145 -5.873477,-1.41598 -10.927447,-3.24304 -13.789255,-4.18807 -4.179832,-1.40182 -6.234102,-1.86334 -8.953457,-2.92816 -3.213795,-1.26677 -6.133653,-2.3032 -6.488535,-2.3032 -1.25081,0 0.482252,8.76384 2.7575,13.94444 4.26555,9.71228 15.168531,11.95317 25.16186,5.17153 2.273452,-1.54282 4.133576,-2.50069 4.133576,-2.12859 0,0.37212 -1.094459,5.18514 -2.432126,10.69565 -2.448613,10.08715 -4.343681,24.9756 -3.812806,29.95502 0.382767,3.59172 -0.7729,3.38984 -6.175481,-1.07857 C 44.23488,159.066 32.669971,142.08924 28.763161,130.16596 27.604645,126.63031 26.034818,119.38461 25.274677,114.06438 l -1.382082,-9.67312 -6.34218,-4.886862 c -6.245809,-4.8126 -6.337664,-4.97094 -6.047586,-10.42241 0.428805,-8.06097 6.443375,-24.92944 12.111219,-33.96818 2.705456,-4.31446 5.327694,-8.018468 5.827176,-8.231147 6.320302,-8.122345 14.143654,-16.956443 22.949397,-22.906043 2.871147,-1.851891 3.295303,-2.369468 5.8003,-3.976927 4.011424,-2.574153 17.858027,-8.627228 25.384856,-10.5889185 10.909514,-2.84331 27.604023,-3.932121 36.098643,-2.354346 3.50922,0.651796 8.19972,1.534054 10.42336,1.960578 8.78483,1.6850375 27.82615,10.1988435 28.6745,12.8210155 0.48388,1.495698 -5.16248,4.28841 -6.72187,3.324658 -3.20621,-2.243703 -3.70052,-2.531212 -6.69619,-3.913996 -7.6909,-3.923589 -21.04538,-7.043406 -33.22031,-7.760772 -20.536295,-1.21003 -43.393223,5.563054 -59.015418,17.487769 -6.910762,5.469073 -8.689071,7.311168 -12.379462,11.240417 -7.256304,7.648132 -14.91116,20.790412 -18.935649,32.509652 -3.514704,10.23468 -3.79369,13.98137 -1.231826,16.54324 1.890991,1.89099 5.077734,2.47302 5.21738,0.95291 -1.640241,-7.13807 7.272835,-23.34591 9.929798,-27.57906 5.77259,-8.57794 25.830102,-33.034379 33.143756,-33.034379 5.85664,0 23.526748,15.297659 33.517881,29.017639 l 4.87526,6.69478 2.4391,-2.5588 c 3.80136,-3.98797 20.51823,-17.358517 25.35039,-20.275858 2.39262,-1.444518 4.35026,-3.346641 4.35026,-4.226939 0,-1.939739 -10.24566,-5.170624 -16.39689,-5.170624 -2.40635,0 -5.62532,0.569612 -7.15327,1.265809 -3.27343,1.491471 -6.30921,7.805052 -7.32843,15.241182 l -0.72814,5.31232 -5.47681,-6.55941 C 95.86654,42.629169 80.570903,28.962904 79.050183,28.128262 78.501331,27.827047 77.911879,27.55038 77.911879,26.844081 c 3.880239,-2.456241 10.208696,-3.578432 15.08084,-4.447686 7.828351,-1.153154 23.593741,-1.613658 31.554721,0.07695 5.75922,1.223052 9.24648,2.527871 21.54934,8.063027 6.41439,2.885883 6.98008,2.8443 14.3994,-1.05848 4.48184,-2.357572 6.60394,-2.933205 7.48413,-2.030116 0.67573,0.693273 3.00351,2.864451 5.17287,4.824836 3.74472,3.383962 9.26029,9.633305 15.28354,17.316846 6.88796,8.78661 13.89347,26.82827 15.99317,41.18804 1.67799,11.475852 0.81109,26.210082 -2.21786,37.696442 -3.13522,11.8894 -12.09798,29.09218 -19.89423,38.18414 -1.59508,1.86019 -4.41287,5.14914 -6.26173,7.30876 -4.86855,4.01561 -7.93458,6.3014 -10.2364,8.45018 -2.71147,1.49661 -3.17556,1.95724 -5.04047,3.03785 -3.30311,1.91396 -3.06424,1.96881 -3.98283,1.25673 -0.81508,-1.41322 -0.77979,-2.98015 -0.55478,-4.84541 0.002,-1.36753 0.49252,-1.6771 3.74485,-3.38065 1.75459,-0.919 3.64558,-2.5437 7.14424,-5.78498 4.74087,-4.27589 6.65698,-6.34463 9.96676,-10.30988 6.34301,-7.28452 6.5707,-8.01003 8.70047,-11.59988 2.03125,-3.96185 2.24771,-4.72721 3.96473,-8.12845 7.29782,-12.4528 10.62649,-38.09339 7.16379,-55.182512 -3.60261,-17.77963 -9.95725,-31.2968 -20.21216,-42.994068 -5.42897,-6.192554 -8.38128,-8.331735 -10.6375,-6.968387 l -1.74007,1.05146 c -2.50824,1.515634 -1.95299,2.962616 2.61013,7.910104 8.87752,9.625261 10.98726,12.603211 15.35325,21.671571 7.47856,15.53328 10.98068,36.185322 6.83864,40.327382 -4.71136,4.71134 -25.73176,12.75485 -36.98274,14.15153 -9.2398,1.14701 -10.7878,1.70821 -9.38252,3.40148 1.77217,2.13533 5.6479,19.844 6.56991,30.01874 0.4947,5.45915 1.32947,8.96637 2.13407,8.96637 1.96505,0 7.91253,-5.7949 10.85607,-10.57752 3.92329,-6.37449 3.49589,-12.70454 -1.18697,-17.58006 -2.07365,-2.15893 -5.32774,-4.89004 -7.23132,-6.06913 l -3.46108,-2.14382 9.82562,-2.11374 c 5.40412,-1.16255 12.30068,-2.9358 15.32572,-3.94056 6.92514,-2.41312 11.73577,-5.06467 13.29543,-5.13787 1.11993,0 -0.71818,9.22025 -2.73997,13.74429 -1.04136,2.3302 -1.95386,4.49775 -2.02778,4.81677 -0.0741,0.31902 -1.87039,3.80518 -3.99222,7.74702 -5.71516,10.61739 -16.95184,22.99002 -26.71437,29.41498 -2.30826,1.51912 -2.79376,3.02553 -3.31271,10.27872 -0.60572,8.46559 -0.6244,8.50558 -4.79327,10.25197 -2.50574,1.20828 -4.6598,1.86569 -7.82133,2.93897 -6.60604,2.68616 -30.96102,6.06016 -43.346533,4.19851 z m 41.47233,-24.91867 c 3.42653,-0.69006 3.77023,-1.14536 3.77023,-4.99494 0,-7.48929 -2.29989,-22.87407 -4.99118,-33.38792 l -2.61842,-10.22913 -10.98603,-0.15933 c -6.04232,-0.0876 -15.96397,-0.49535 -22.048117,-0.90604 -10.064269,-0.67937 -11.082657,-0.56037 -11.290526,1.31938 -2.899602,26.22076 -0.559418,35.54934 10.946739,43.63617 8.416264,5.91516 22.450434,7.6957 37.217304,4.7218 z m -13.92473,-63.05707 c 3.26654,-4.84722 3.34199,-10.58031 0.22404,-17.021242 -1.87748,-3.87835 -3.46007,-5.34593 -7.37876,-6.84249 -4.54247,-1.73478 -11.99823,-2.02708 -13.43244,-0.5266 -0.3192,0.33375 -2.007357,1.51493 -3.751819,2.62482 -1.813298,1.57897 -3.734805,4.46478 -5.380659,7.30045 -1.216567,5.612162 -0.6315,10.345672 0.953322,13.249252 3.162891,5.7948 5.475584,6.99649 16.299596,8.46944 3.95684,0.53844 9.31768,-2.5807 12.46676,-7.25363 z m -38.518147,-9.43596 c 2.911484,-5.797162 7.092982,-13.100222 9.29216,-16.229032 2.394946,-3.4155 3.801757,-5.86099 5.643861,-9.11411 1.370769,-1.13762 0.838319,-2.10481 -3.190163,-5.79485 -2.65955,-2.43612 -7.706724,-5.91878 -11.215903,-7.73923 -5.543851,-2.87595 -7.684451,-3.31356 -16.326784,-3.3377 -9.074251,-0.0254 -10.445679,0.2806 -15.639953,3.48908 -9.008965,5.56482 -16.401846,16.82658 -19.471961,29.66223 -0.641584,2.68226 -0.112244,3.34616 4.767311,5.977532 6.27593,3.38449 23.075934,9.31636 33.330623,11.7686 3.828195,0.91546 7.08566,1.70796 7.238767,1.76112 0.153019,0.0531 2.660515,-4.64648 5.572042,-10.44364 z m 69.867017,4.06342 c 6.61814,-3.20377 11.55311,-7.684162 15.26985,-13.863182 2.26898,-3.77221 2.78666,-6.27805 2.87286,-13.90598 0.0934,-8.23835 -0.31919,-10.16594 -3.59902,-16.82095 -4.99074,-10.12694 -10.70747,-17.386185 -13.65504,-17.33949 -1.29904,0.02061 -5.74918,2.364101 -9.88915,5.20782 -8.51716,5.85031 -27.86894,23.5235 -27.82747,25.41365 0.0131,0.68361 2.50737,4.92279 5.53851,9.42041 3.03118,4.49762 7.58667,12.49764 10.12333,17.777812 l 4.61205,9.60032 4.06022,-0.77998 c 5.08002,-1.42185 8.80084,-2.8484 12.49386,-4.71043 z"
         id="path607"
         sodipodi:nodetypes="csscscccccssccccsssccssssscssscscsccsssssccsccssccsscsssssscssccsssssssssccsccsccccsssssssssssssscsccscsssccccssscssssssssssccsssssccssssssssscscssscssccc" />
    </g>
  </g>
</svg>
